PathFileType	4	(X/Y/Z)	C:\Users\Basilio\Documents\Thesis Gigler\squatting_fais\c3dfiles\077\SLS_back_pre2\markers_experimental.trc
DataRate	CameraRate	NumFrames	NumMarkers	Units	OrigDataRate	OrigDataStartFrame	OrigNumFrames
200.000000	200.000000	4	60	mm	200.000000	192	1537
Frame#	Time	FHD			RBHD			C7			T10			CLAV			LSHO			LUUPA			LMUPA			LDUPA			LLEP			LMEP			LRAD			LUL			LRFIN			RSHO			RUPA1			RMUPA			RDUPA			RLEP			RMEP			RRAD			RUL			RUFIN			LASI			RASI			USACR			LSACR			RSACR			LTHI1			LTHI2			LTHI3			LTHI4			LLFC			LMFC			LTIB1			LTIB2			LTIB3			LTIB4			LLMAL			LHEE			LMT1			LMT2			LMT5			RTHI			RTHI2			RTHI3			RTHI4			RLFC			RMFC			RTIB1			RTIB2			RTIB3			RTIB4			RLMAL			RMMAL			RHEE			RMT1			RMT2			RMT5			LBHD			
		X1	Y1	Z1	X2	Y2	Z2	X3	Y3	Z3	X4	Y4	Z4	X5	Y5	Z5	X6	Y6	Z6	X7	Y7	Z7	X8	Y8	Z8	X9	Y9	Z9	X10	Y10	Z10	X11	Y11	Z11	X12	Y12	Z12	X13	Y13	Z13	X14	Y14	Z14	X15	Y15	Z15	X16	Y16	Z16	X17	Y17	Z17	X18	Y18	Z18	X19	Y19	Z19	X20	Y20	Z20	X21	Y21	Z21	X22	Y22	Z22	X23	Y23	Z23	X24	Y24	Z24	X25	Y25	Z25	X26	Y26	Z26	X27	Y27	Z27	X28	Y28	Z28	X29	Y29	Z29	X30	Y30	Z30	X31	Y31	Z31	X32	Y32	Z32	X33	Y33	Z33	X34	Y34	Z34	X35	Y35	Z35	X36	Y36	Z36	X37	Y37	Z37	X38	Y38	Z38	X39	Y39	Z39	X40	Y40	Z40	X41	Y41	Z41	X42	Y42	Z42	X43	Y43	Z43	X44	Y44	Z44	X45	Y45	Z45	X46	Y46	Z46	X47	Y47	Z47	X48	Y48	Z48	X49	Y49	Z49	X50	Y50	Z50	X51	Y51	Z51	X52	Y52	Z52	X53	Y53	Z53	X54	Y54	Z54	X55	Y55	Z55	X56	Y56	Z56	X57	Y57	Z57	X58	Y58	Z58	X59	Y59	Z59	X60	Y60	Z60	

193	0.96	-237.2496490478516	1857.742919921875	-872.936950683594	-385.0708007812501	1744.804931640625	-798.9795532226565	-433.5315856933595	1610.543212890625	-879.5605468750002	-441.8208312988282	1269.837646484375	-867.0615844726565	-271.6305236816407	1552.011962890625	-880.042907714844	-302.1481933593751	1566.923217773438	-1075.269165039063	-286.7537841796876	1347.782836914063	-1176.632934570313	-244.5340881347657	1327.779052734375	-1158.937377929688	-273.6082153320313	1280.719482421875	-1186.7705078125	-254.7144622802735	1219.363891601563	-1189.168212890625	-316.5520019531251	1195.10498046875	-1148.919311523438	-133.8826446533203	959.3530273437502	-1073.430541992188	-150.0867156982422	943.6558227539065	-1151.909301757813	-85.36817169189455	878.9468383789065	-1082.26171875	-281.8371582031251	1565.427734375	-687.8381958007814	-273.6919860839844	1352.261474609375	-575.0238647460939	-234.474838256836	1332.291137695313	-595.1257324218751	-260.0661010742188	1284.509643554688	-566.5651245117189	-243.6672363281251	1220.4931640625	-566.4447631835939	-305.8403930664063	1194.421752929688	-611.5303344726564	-138.8400421142578	963.9072875976565	-671.2359008789064	-125.7481002807617	952.7034912109377	-592.2833251953126	-89.17281341552736	882.5214843750002	-675.0928344726564	-255.3552703857422	1062.760009765625	-1007.31591796875	-237.0756835937501	1095.127075195313	-720.7944946289064	-448.1791381835939	1162.190673828125	-861.1153564453127	-454.8052673339845	1130.770385742188	-888.8085937500002	-454.5495605468751	1129.966064453125	-833.0936279296877	-335.4102478027344	860.634704589844	-1073.600830078125	-315.6772766113282	779.3760986328127	-1075.654418945313	-267.6121215820313	775.5786132812502	-1068.762573242188	-350.5661621093751	729.6225585937501	-1064.522827148438	-336.7745056152344	581.6408081054689	-1049.39453125	-326.2011718750001	545.8173828125001	-921.0491333007815	-295.8277282714844	359.9798278808594	-1014.871520996094	-329.8011169433594	323.8165588378907	-1089.879150390625	-296.0321655273438	318.7792968750001	-1057.92333984375	-294.1600646972657	236.7228546142579	-1038.297607421875	-345.8702697753907	117.1115875244141	-1092.72607421875	-398.5615539550782	82.90289306640626	-1044.538330078125	-189.3084259033203	57.54649734497072	-1022.541137695313	-182.9768676757813	57.92985916137697	-1064.90625	-314.8973388671876	124.3280639648438	-1009.218383789063	-369.4183044433594	763.7407226562501	-680.7012329101564	-342.7347717285157	703.6199340820314	-679.0863037109376	-308.8066101074219	700.1546630859376	-681.0104980468751	-379.7956237792969	633.1717529296876	-697.2402954101564	-386.0586547851564	561.8814697265626	-700.9455566406251	-347.6443481445313	545.4687500000001	-827.0288085937502	-329.7731933593751	428.2682189941407	-714.2184448242189	-389.4138183593751	344.1529235839844	-685.2997436523439	-344.3530883789063	343.3212585449219	-702.2684326171876	-332.3957519531251	299.5794677734376	-740.5392456054689	-387.634979248047	116.8020172119141	-705.8372192382814	-352.4455261230469	125.0732192993164	-792.2196044921877	-441.7027893066407	88.51165008544923	-764.9489746093751	-219.6918334960938	61.71512985229494	-740.1395874023439	-227.6103668212891	61.8359718322754	-702.9029541015626	-249.7054748535157	44.54778671264649	-656.0316162109376	-377.4507751464844	1753.19091796875	-945.535095214844	
194	0.965	-237.6089019775391	1857.36328125	-872.9116210937502	-385.6053466796876	1744.752807617188	-798.8435058593752	-433.7993469238282	1610.49951171875	-879.567321777344	-442.0484924316407	1269.81298828125	-867.0415649414065	-271.8880615234376	1552.08984375	-879.9648437500002	-302.3248901367188	1567.16455078125	-1075.145629882813	-285.3001403808594	1348.559814453125	-1177.153930664063	-242.8505554199219	1328.77392578125	-1159.244506835938	-270.8467102050782	1281.517211914063	-1187.218383789063	-252.3311157226563	1220.421630859375	-1189.855346679688	-314.0828857421876	1195.686401367188	-1150.02685546875	-130.3828887939453	960.3676757812502	-1075.359252929688	-145.4614868164063	945.418151855469	-1154.182983398438	-81.44802856445314	880.6233520507815	-1084.36279296875	-281.8919067382813	1565.431640625	-688.1032714843751	-272.0089111328126	1352.739501953125	-575.0652465820314	-232.8141326904297	1332.971069335938	-595.3898315429689	-258.0942382812501	1284.947387695313	-566.6124267578126	-241.2031860351563	1221.185302734375	-566.4191894531251	-303.2458496093751	1194.911010742188	-611.2259521484376	-135.4949493408203	964.7821044921877	-670.2963867187501	-122.0080261230469	954.149597167969	-591.3437500000001	-85.7252655029297	883.4653930664065	-674.0123901367189	-255.5733947753907	1062.937255859375	-1007.242309570313	-237.2712860107422	1095.120849609375	-720.7864379882814	-448.4455871582032	1162.306396484375	-861.022644042969	-455.0283508300782	1130.88671875	-888.726989746094	-454.7704467773439	1130.123413085938	-833.0388183593752	-336.0271606445313	860.9194335937502	-1073.173461914063	-315.6899108886719	778.8833007812502	-1075.582275390625	-267.5254821777344	775.5697021484377	-1068.720092773438	-350.7298889160157	729.6591796875001	-1064.497192382813	-336.7604675292969	581.6320800781251	-1049.371337890625	-326.1585388183594	545.8389282226564	-921.0244750976565	-295.8222656250001	359.9259033203126	-1014.882507324219	-329.8167419433594	323.8043823242188	-1089.87548828125	-295.9714355468751	318.7442016601563	-1057.933349609375	-293.5213317871094	236.3673400878907	-1037.908569335938	-345.9166564941407	117.1419906616211	-1092.7216796875	-398.557830810547	82.97325134277345	-1044.53759765625	-189.2829895019532	57.550106048584	-1022.511047363281	-183.02099609375	57.90598678588869	-1064.874633789063	-314.9048767089844	124.3539810180664	-1009.204650878906	-369.5257568359376	763.7637329101564	-680.6594238281251	-342.8606872558594	703.6420898437501	-679.0437011718751	-308.9268493652344	700.1704101562501	-680.8903808593751	-379.9522705078126	633.1515502929689	-697.1918945312501	-386.0730285644532	561.9501342773439	-700.8704223632814	-347.6659851074219	545.4967041015626	-826.984558105469	-329.6004943847657	428.0217285156251	-714.1295166015626	-389.4195556640626	344.0579223632813	-685.2791137695314	-344.3609924316407	343.2931213378907	-702.2285156250001	-332.3181457519532	299.5046081542969	-740.4703979492189	-387.679901123047	116.7556915283203	-705.8377075195314	-352.5516967773438	125.1619644165039	-792.2307739257815	-441.7395019531251	88.55171203613283	-764.8897705078126	-219.6926574707032	61.72970199584962	-740.1927490234376	-227.6211547851563	61.85438919067384	-702.9244384765626	-249.714340209961	44.55835342407227	-656.0592651367189	-378.2776489257813	1753.24755859375	-945.5794067382815	
195	0.97	-238.3614501953126	1857.578491210938	-873.195495605469	-386.0639038085939	1744.679321289063	-798.9532470703127	-434.0996704101564	1610.425903320313	-879.5739746093752	-442.319793701172	1269.718994140625	-867.0324707031252	-272.1466979980469	1551.953857421875	-879.958923339844	-302.4563903808594	1567.407836914063	-1075.028198242188	-283.3139038085938	1349.419311523438	-1177.685546875	-241.2881927490235	1329.81982421875	-1159.42822265625	-269.1239013671876	1282.495727539063	-1187.8427734375	-249.3282623291016	1221.467163085938	-1190.613891601563	-311.5187683105469	1196.261840820313	-1150.991333007813	-125.7175216674805	961.5068969726565	-1076.88232421875	-140.6651458740235	947.0472412109377	-1156.135498046875	-77.21437835693361	881.444519042969	-1086.290893554688	-281.8376464843751	1565.55712890625	-688.2847290039064	-270.3980712890626	1353.347778320313	-575.0872192382814	-231.2168731689454	1333.4365234375	-595.5631713867189	-255.9096679687501	1285.631958007813	-566.6030273437501	-238.5835571289063	1221.9619140625	-566.4749755859376	-300.5522766113282	1195.15283203125	-610.9716186523439	-132.0041656494141	965.691345214844	-669.3914184570314	-118.1505279541016	955.1459960937502	-590.5043334960939	-82.09140014648439	884.6771240234377	-673.0479736328126	-255.7848815917969	1062.996215820313	-1007.237182617188	-237.5225830078126	1095.19140625	-720.7260742187501	-448.6330566406251	1162.390869140625	-860.9896240234377	-455.3211669921876	1130.97998046875	-888.662780761719	-455.0445251464845	1130.190551757813	-832.8917236328127	-336.2946166992188	860.9185791015627	-1073.295288085938	-315.9883728027344	779.004577636719	-1075.70654296875	-267.6185607910157	775.5097656250002	-1068.676513671875	-351.0444335937501	729.7225341796876	-1064.471557617188	-336.7663574218751	581.6394653320314	-1049.392578125	-326.1228027343751	545.8461914062501	-921.049011230469	-295.8289184570313	359.9096374511719	-1014.887451171875	-329.7881164550782	323.7974548339844	-1089.83251953125	-296.0176696777344	318.7925720214844	-1057.907470703125	-294.1539916992188	236.7275085449219	-1038.287475585938	-346.0069580078126	117.1674346923828	-1092.7255859375	-398.5718383789064	82.92042541503908	-1044.536987304688	-189.3290100097657	57.50556945800783	-1022.550659179688	-183.017333984375	57.84311294555665	-1064.805053710938	-314.9305419921876	124.3475723266602	-1009.196166992188	-369.6862487792969	763.8197021484376	-680.6501464843751	-342.9710388183594	703.6729736328126	-678.9175415039064	-309.1138000488282	700.3192138671876	-680.8040161132814	-380.0204772949219	633.1787109375001	-697.1499023437501	-386.1707458496095	561.9270019531251	-700.8318481445314	-347.7357482910157	545.5006103515626	-826.9392700195315	-329.6532592773438	428.0210571289064	-714.1287231445314	-389.4461364746095	344.1203002929688	-685.2754516601564	-344.7004394531251	343.4608459472657	-702.3601074218751	-332.4082031250001	299.5127563476563	-740.4802246093751	-387.6502685546876	116.8046112060547	-705.7857055664064	-352.5149536132813	125.1187286376953	-792.2251586914065	-441.7949523925782	88.52107238769533	-764.9195556640626	-219.6682891845704	61.69544219970705	-740.1697387695314	-227.5951080322266	61.8243751525879	-702.9105224609376	-249.6376953125001	44.63789367675782	-656.0475463867189	-378.6994323730469	1752.26025390625	-945.6030883789065	
196	0.975	-239.3656158447266	1857.963623046875	-873.5668945312502	-386.5542602539064	1744.954467773438	-799.010192871094	-434.4239501953126	1610.309814453125	-879.6016235351565	-442.5639038085939	1269.734130859375	-867.0217285156252	-272.4975585937501	1551.962890625	-879.9881591796877	-302.7223815917969	1567.595092773438	-1074.849243164063	-281.6160888671876	1350.238891601563	-1178.00146484375	-239.3324432373047	1331.013916015625	-1159.740356445313	-266.4463500976563	1283.533447265625	-1188.485107421875	-246.1832427978516	1222.383911132813	-1191.120727539063	-308.3804016113282	1197.157470703125	-1151.988891601563	-122.2061843872071	963.120056152344	-1079.142456054688	-136.1920776367188	949.0648193359377	-1158.348022460938	-72.6831512451172	883.1840820312502	-1088.420166015625	-281.8953857421876	1565.698852539063	-688.4967041015626	-268.8485717773438	1353.857543945313	-575.1870727539064	-229.6468200683594	1334.429443359375	-595.6947631835939	-253.7456665039063	1286.385131835938	-566.6449584960939	-236.0984954833985	1222.623779296875	-566.5340576171876	-297.8671264648438	1195.305419921875	-610.9089965820314	-128.1564483642578	966.7487792968752	-668.6224975585939	-114.201286315918	956.6993408203127	-589.5604248046876	-77.74746704101564	886.1480712890627	-671.9356689453126	-255.8177642822266	1063.082641601563	-1007.137756347656	-237.6964569091797	1095.142456054688	-720.6895141601564	-448.7932739257814	1162.548950195313	-860.9504394531252	-455.6174621582032	1131.038330078125	-888.5080566406252	-455.2677612304689	1130.308715820313	-832.8353271484377	-336.4382629394532	860.7540283203127	-1073.4462890625	-316.2075805664063	779.0173950195315	-1075.79248046875	-267.7983398437501	775.5510253906252	-1068.65380859375	-351.2714843750001	729.6977539062501	-1064.382690429688	-336.8373718261719	581.6566162109376	-1049.383544921875	-326.0834960937501	545.8515625000001	-921.0718994140627	-296.4332885742188	360.1092529296876	-1015.137512207031	-329.5929565429688	323.5142211914063	-1089.855102539063	-295.9678344726563	318.7778930664063	-1057.928833007813	-293.6014404296876	236.3977050781251	-1037.918090820313	-345.9869995117188	117.1661224365235	-1092.720703125	-398.5482482910157	82.97151184082033	-1044.533447265625	-189.2947540283203	57.57968139648439	-1022.539245605469	-183.1024475097657	57.8850784301758	-1064.89501953125	-314.9294738769532	124.3410186767578	-1009.197875976563	-369.7887573242188	763.8585205078126	-680.5926513671876	-343.1096496582032	703.6726074218751	-678.8723144531251	-309.1903991699219	700.1589355468751	-680.7395629882814	-380.1340942382813	633.1725463867189	-697.0877075195314	-386.1775207519532	561.8996582031251	-700.7838745117189	-347.8287963867188	545.6047973632814	-826.8778076171877	-329.8257751464844	428.2463989257814	-714.1431274414064	-389.4567871093751	344.1036376953126	-685.2460937500001	-344.4591064453126	343.1531372070313	-702.1494750976564	-332.3336791992188	299.4727783203126	-740.4119873046876	-387.6561279296876	116.7921752929688	-705.7924804687501	-352.6067504882813	125.2404022216797	-792.2420043945315	-441.7701721191407	88.57231903076173	-764.9705200195314	-219.686019897461	61.73265838623048	-740.1350708007814	-227.6145782470704	61.892635345459	-702.9014282226564	-249.6242980957032	44.69760513305665	-656.0153198242189	-379.3477478027344	1752.092895507813	-945.6279907226565	
